<svg t="1693366294899" class="icon" viewBox="0 0 1024 1024" version="1.1" xmlns="http://www.w3.org/2000/svg" p-id="4839" width="200" height="200"><path d="M578 776.1H457.8c-52.2 0-101.4-20.5-138.5-57.6-37.1-37.1-57.6-86.3-57.6-138.5s20.5-101.4 57.6-138.5 86.3-57.6 138.5-57.6H578c52.2 0 101.4 20.5 138.5 57.6 37.1 37.1 57.6 86.3 57.6 138.5s-20.5 101.4-57.6 138.5c-37.1 37.1-86.3 57.6-138.5 57.6zM457.8 413.8c-91.6 0-166.1 74.5-166.1 166.1S366.2 746 457.8 746H578c91.6 0 166.1-74.5 166.1-166.1S669.6 413.8 578 413.8H457.8zM274.9 410.6c-27 0-52.2-12.4-71-35-18.1-21.8-28.1-50.5-28.1-81 0-26.4 7.7-52.2 21.8-72.7 14.3-20.8 34.4-35.3 56.6-40.8 4.8-1.2 9.8 0 13.5 3.3 3.7 3.2 5.6 8.1 5 13-0.8 7.1-1.2 14.4-1.2 21.8 0 21.3 3.3 39.4 7.8 51.9 13.1-16 29.5-22.4 42.7-24.9 19-3.6 34.7 0.5 36.4 0.9 5.1 1.4 9 5.3 10.5 10.3 3.4 11.9 5.2 24.4 5.2 37.1 0 30.5-10 59.3-28.1 81-18.9 22.7-44.1 35.1-71.1 35.1z m-33.4-191.2c-21.5 14.8-35.7 43.4-35.7 75.3 0 47.4 31 86 69.2 86s69.2-38.6 69.2-86c0-6.7-0.6-13.3-1.8-19.7-4.3-0.3-9.8-0.2-15.6 1-15.7 3.2-26.5 13.1-33 30-3 7.7-11.7 11.6-19.4 8.6-3.4-1.3-6-3.7-7.7-6.6-15.7-15.8-25.2-49.2-25.2-88.6z" fill="#b64b1e" p-id="4840"></path><path d="M307.2 493.3c-2.9 0-5.8-0.8-8.4-2.6-31.8-21.5-50.7-57.1-50.7-95.4 0-8.3 6.7-15 15-15s15 6.7 15 15c0 28.3 14 54.7 37.5 70.5 6.9 4.6 8.7 14 4 20.8-2.9 4.3-7.6 6.7-12.4 6.7zM763.3 410.6c-27 0-52.2-12.4-71-35-18.1-21.8-28.1-50.5-28.1-81 0-12.7 1.7-25.2 5.2-37.1 1.5-5 5.4-9 10.5-10.3 1.7-0.5 17.4-4.5 36.4-0.9 13.2 2.5 29.6 9 42.7 24.9 4.5-12.5 7.8-30.7 7.8-51.9 0-7.4-0.4-14.8-1.2-21.8-0.6-4.9 1.3-9.7 5-13s8.7-4.5 13.5-3.3c22.2 5.5 42.4 20 56.6 40.8 14.1 20.5 21.8 46.3 21.8 72.7 0 30.5-10 59.3-28.1 81-18.8 22.5-44.1 34.9-71.1 34.9zM696 275c-1.2 6.4-1.8 13-1.8 19.7 0 47.4 31 86 69.2 86 38.1 0 69.2-38.6 69.2-86 0-31.9-14.2-60.4-35.7-75.3 0 39.4-9.6 72.9-25.1 88.6-1.7 2.9-4.3 5.3-7.7 6.6-7.7 3-16.4-0.9-19.4-8.6-6.5-17-17.3-26.8-33-30-5.9-1.3-11.4-1.3-15.7-1z" fill="#b64b1e" p-id="4841"></path><path d="M731.1 493.3c-4.8 0-9.5-2.3-12.4-6.6-4.6-6.9-2.8-16.2 4-20.8 23.5-15.9 37.5-42.2 37.5-70.5 0-8.3 6.7-15 15-15s15 6.7 15 15c0 38.3-19 73.9-50.7 95.4-2.6 1.6-5.6 2.5-8.4 2.5zM230.5 735.5c-8.3 0-15-6.7-15-15 0-43 23.3-82.9 60.7-104.2 7.2-4.1 16.4-1.6 20.4 5.6 4.1 7.2 1.6 16.4-5.6 20.4-28.1 15.9-45.5 45.9-45.5 78.1 0 8.4-6.7 15.1-15 15.1zM162.9 675.4c-8.3 0-15-6.7-15-15 0-66 53.7-119.7 119.7-119.7h9.1c8.3 0 15 6.7 15 15s-6.7 15-15 15h-9.1c-49.5 0-89.7 40.2-89.7 89.7 0 8.3-6.7 15-15 15zM807.1 735.5c-8.3 0-15-6.7-15-15 0-32.2-17.4-62.2-45.5-78.1-7.2-4.1-9.7-13.2-5.6-20.4 4.1-7.2 13.2-9.7 20.4-5.6 37.4 21.2 60.7 61.2 60.7 104.2 0 8.2-6.7 14.9-15 14.9zM874.8 675.4c-8.3 0-15-6.7-15-15 0-49.5-40.2-89.7-89.7-89.7H761c-8.3 0-15-6.7-15-15s6.7-15 15-15h9.1c66 0 119.7 53.7 119.7 119.7 0 8.3-6.7 15-15 15z" fill="#b64b1e" p-id="4842"></path><path d="M230.5 735.5c-8.3 0-15-6.7-15-15 0-43 23.3-82.9 60.7-104.2 7.2-4.1 16.4-1.6 20.4 5.6 4.1 7.2 1.6 16.4-5.6 20.4-28.1 15.9-45.5 45.9-45.5 78.1 0 8.4-6.7 15.1-15 15.1zM162.9 675.4c-8.3 0-15-6.7-15-15 0-66 53.7-119.7 119.7-119.7h9.1c8.3 0 15 6.7 15 15s-6.7 15-15 15h-9.1c-49.5 0-89.7 40.2-89.7 89.7 0 8.3-6.7 15-15 15zM517 635.8c-33.8 0-65.1-18.3-81.7-47.9-4.1-7.2-1.5-16.4 5.7-20.4 7.2-4.1 16.4-1.5 20.4 5.7 11.3 20.1 32.6 32.6 55.5 32.6 22.8 0 43.9-12.3 55.3-32 4.1-7.2 13.3-9.7 20.5-5.6 7.2 4.1 9.7 13.3 5.6 20.5-16.7 29.1-47.8 47.1-81.3 47.1z" fill="#b64b1e" p-id="4843"></path><path d="M583.9 412.4c-8.3 0-15-6.7-15-15v-47.7c0-8.3 6.7-15 15-15s15 6.7 15 15v47.7c0 8.3-6.8 15-15 15z" fill="#b64b1e" p-id="4844"></path><path d="M438.6 412.4c-8.3 0-15-6.7-15-15v-47.7c0-8.3 6.7-15 15-15s15 6.7 15 15v47.7c0 8.3-6.7 15-15 15z" fill="#b64b1e" p-id="4845"></path></svg>