<svg t="1693295851168" class="icon" viewBox="0 0 1024 1024" version="1.1" xmlns="http://www.w3.org/2000/svg" p-id="4483" width="200" height="200"><path d="M868.266667 441.6l104.533333-72.533333c6.4-4.266667 8.533333-10.666667 8.533333-17.066667v-149.333333c0-6.4-4.266667-12.8-8.533333-17.066667l-106.666667-74.666667c-6.4-4.266667-17.066667-4.266667-23.466666 0l-106.666667 74.666667c-6.4 4.266667-10.666667 10.666667-10.666667 17.066667v149.333333c0 6.4 4.266667 12.8 8.533334 17.066667l89.6 61.866666-36.266667 49.066667-138.666667-113.066667c-2.133333-2.133333-8.533333-4.266667-12.8-4.266666H597.333333v-85.333334h-42.666666v85.333334h-85.333334v-85.333334h-42.666666v85.333334h-38.4c-4.266667 0-10.666667 2.133333-12.8 4.266666l-138.666667 113.066667-36.266667-49.066667 89.6-61.866666c6.4-4.266667 8.533333-10.666667 8.533334-17.066667v-149.333333c0-6.4-4.266667-12.8-8.533334-17.066667l-106.666666-74.666667c-6.4-4.266667-17.066667-4.266667-23.466667 0l-106.666667 74.666667c-6.4 4.266667-10.666667 10.666667-10.666666 17.066667v149.333333c0 6.4 4.266667 12.8 8.533333 17.066667l104.533333 72.533333 57.6 76.8V597.333333H123.733333c-8.533333 0-14.933333 4.266667-19.2 10.666667l-59.733333 106.666667 36.266667 21.333333L136.533333 640H213.333333v23.466667c0 6.4 2.133333 12.8 8.533334 17.066666l2.133333 2.133334H170.666667c-8.533333 0-14.933333 4.266667-19.2 12.8l-53.333334 117.333333 38.4 17.066667L183.466667 725.333333h89.6l51.2 42.666667H234.666667c-8.533333 0-17.066667 4.266667-19.2 12.8l-42.666667 106.666667 40.533333 14.933333 36.266667-93.866667h128l19.2 17.066667c4.266667 4.266667 8.533333 4.266667 12.8 4.266667h204.8c4.266667 0 10.666667-2.133333 12.8-4.266667l19.2-17.066667h128l36.266667 93.866667 40.533333-14.933333-42.666667-106.666667c-2.133333-8.533333-10.666667-12.8-19.2-12.8h-89.6l51.2-42.666667h89.6l46.933334 104.533334 38.4-17.066667-53.333334-117.333333c-4.266667-8.533333-10.666667-12.8-19.2-12.8h-53.333333l2.133333-2.133334c4.266667-4.266667 8.533333-10.666667 8.533334-17.066666V640h76.8l53.333333 96 36.266667-21.333333-59.733334-106.666667c-4.266667-6.4-10.666667-10.666667-19.2-10.666667H810.666667v-78.933333l57.6-76.8zM768 213.333333l21.333333-14.933333V277.333333h42.666667V168.533333l21.333333-14.933333 85.333334 59.733333v128l-85.333334 59.733334-85.333333-59.733334v-128zM85.333333 213.333333l85.333334-59.733333 21.333333 14.933333V277.333333h42.666667V198.4l21.333333 14.933333v128l-85.333333 59.733334L85.333333 341.333333v-128z m520.533334 576h-189.866667L256 654.933333v-134.4l140.8-113.066666h232.533333l140.8 113.066666v134.4L605.866667 789.333333z" p-id="4484"></path></svg>